<?xml version="1.0" encoding="UTF-8"?>
<svg id="_x34_0x40" xmlns="http://www.w3.org/2000/svg" viewBox="0 0 40 40">
  <defs>
    <style>
      .cls-1 {
        fill: #fff;
      }

      .cls-2 {
        fill: #5e3a1c;
      }
    </style>
  </defs>
  <rect class="cls-2" x="-2.44" y="-3.28" width="46.08" height="49.41"/>
  <g>
    <g>
      <path class="cls-1" d="M8.04,30.76V13.17c0-1.17.96-2.12,2.12-2.12h6.8c3.97,0,6.92,2.74,6.92,6.74s-2.95,6.71-6.52,6.71h-4.26c-.45,0-.81.36-.81.81v5.42c0,1.16-.91,2.13-2.07,2.16s-2.18-.93-2.18-2.12ZM16.81,20.67c1.64,0,2.78-1.18,2.77-2.86s-1.37-2.95-3-2.95h-3.47c-.45,0-.82.37-.82.82v4.21c0,.43.35.79.79.79h3.74Z"/>
      <path class="cls-1" d="M22.44,26.67v-.4c0-1.17.92-2.12,2.09-2.12s2.12.95,2.12,2.12v.37c0,1.38.95,2.37,2.65,2.37,1.94,0,2.46-1.26,2.46-3.2v-12.95c0-1.2.92-2.12,2.09-2.12s2.12.92,2.12,2.12v13.01c0,4.28-2.28,7.17-6.61,7.17s-6.92-3.02-6.92-6.37Z"/>
    </g>
    <g>
      <path class="cls-2" d="M11.06,14c-2.74,2.74-4.68,3.96-5.94,3.74-.48-.08-.78-.37-.89-.61-.2-.41-.25-1.07.97-2.86.03-.05.06-.09.09-.14-.03-.06-.05-.13-.06-.19,0-.04,0-.08,0-.12l-.92-.92-.05-.09c-.91-1.77,1.05-4.04,1.28-4.29l.02-.03.03-.02c.25-.23,2.52-2.19,4.29-1.28l.09.05.92.92c.13,0,.23.03.32.06.02-.01.04-.03.06-.04,1.85-1.26,2.53-1.23,2.94-1.02.24.12.52.41.61.89.22,1.26-1.01,3.2-3.74,5.94Z"/>
      <path class="cls-1" d="M13.91,7.74c-.44-.22-1.64.52-2.3.97-.25.17-.43.3-.44.32,0,0,0,0,0,0l-.2-.2s-.11-.03-.18-.02c-.06.02-.12.04-.12.04l-1.08-1.08c-1.43-.74-3.57,1.18-3.57,1.18,0,0-1.92,2.15-1.18,3.57l1.08,1.08s-.06.14-.05.24c0,.02.01.04.03.06l.2.2s-.16.21-.37.52c-.45.67-1.14,1.81-.92,2.23,0,0,.81,1.71,5.82-3.3s3.3-5.82,3.3-5.82ZM5.96,13.74s-.04-.07-.04-.12c0,.02.01.05.04.12l.03.04s-.02-.02-.03-.04Z"/>
      <path class="cls-2" d="M11.03,8.82l.46.46c-.29,1.58-2.18,3.32-2.18,3.32,0,0-1.44,1.57-2.9,1.9l-.78-.78c-.01-.1.05-.24.05-.24h0c0,.06.02.1.05.14,0,.01.02.03.03.04.03.03.06.04.1.05.35-.13.9-.56,2.56-2.22s2.16-2.24,2.33-2.56c.02-.11-.09-.22-.22-.29,0,0,.06-.03.12-.04.07-.02.14-.02.18.02l.21.21s0,0,0,0Z"/>
      <path class="cls-2" d="M9.09,8.2s.07.07.08.12c.07.27-.4.63-1.05.81-.31.08-.61.11-.84.08-.25-.03-.43-.12-.47-.26-.01-.05,0-.09,0-.14.16.14.52.18.94.12.09-.01.19-.04.29-.06.54-.15.96-.42,1.04-.66Z"/>
      <path class="cls-2" d="M5.43,11.86s.07.07.12.08c.27.07.63-.4.81-1.05.08-.31.11-.61.08-.84-.03-.25-.12-.43-.26-.47-.05-.01-.09,0-.14,0,.14.16.18.52.12.94-.01.09-.04.19-.06.29-.15.54-.42.96-.66,1.04Z"/>
    </g>
  </g>
</svg>